<?xml version="1.0" encoding="UTF-8"?>
<svg id="Layer_1" data-name="Layer 1" xmlns="http://www.w3.org/2000/svg" version="1.1" viewBox="0 0 1036.8 788.1">
  <defs>
    <style>
      .cls-1 {
        fill: none;
        stroke: #000;
        stroke-miterlimit: 10;
      }
    </style>
  </defs>
  <polygon class="cls-1" points="100.8 140.8 161.6 60.3 230 135.2 300.2 130.5 280.5 235.4 171 264.4 165.4 196.1 100.8 140.8"/>
  <polygon class="cls-1" points="161.6 60.3 230 135.2 300.2 130.5 350.7 70.6 318.9 37.9 256.2 25.7 227.2 7.9 161.6 60.3"/>
  <polygon class="cls-1" points="280.5 235.4 350.7 264.4 378.8 199.8 425.6 157.7 382.6 99.6 408.8 71.6 350.7 70.6 300.2 130.5 280.5 235.4"/>
  <polygon class="cls-1" points="189.7 332.7 200.5 370.2 256.2 386.1 292.7 359.4 353.1 366.5 344.2 332.7 266.5 280.3 249.6 328.1 189.7 332.7"/>
  <polygon class="cls-1" points="501.5 344 501.5 394 539.8 394 539.8 449.8 527.7 461.9 554.8 508.8 609.1 461.9 609.1 417.9 582 403 561.4 333.2 501.5 344"/>
  <polygon class="cls-1" points="561.4 333.2 582 403 609.1 417.9 635.3 389.9 622.2 333.2 561.4 333.2"/>
  <polygon class="cls-1" points="501.5 344 561.4 333.2 622.2 333.2 658.7 269.1 590.4 214.8 567.9 270 501.5 344"/>
  <polygon class="cls-1" points="501.5 394 475.2 417.9 488.4 473.2 527.7 461.9 539.8 449.8 539.8 394 501.5 394"/>
</svg>