<?xml version="1.0" encoding="UTF-8"?>
<svg id="Layer_1" data-name="Layer 1" xmlns="http://www.w3.org/2000/svg" xmlns:xlink="http://www.w3.org/1999/xlink" viewBox="0 0 1545.31 1823.09">
  <defs>
    <style>
      .cls-1 {
        stroke-width: 2px;
      }

      .cls-1, .cls-2 {
        fill: none;
        stroke: #000;
        stroke-miterlimit: 10;
      }

      .cls-2 {
        stroke-width: 4px;
      }
    </style>
  </defs>
  <image width="2484" height="2933" transform="scale(.62)" xlink:href="../../../../../../Downloads/Europe Map.jpg"/>
  <polygon class="cls-2" points="393.14 789.73 379.14 804.73 393.14 828.64 379.14 858.3 355.88 858.3 334.14 866.73 348.14 871.73 343.14 891.73 316.14 896.73 323.14 912.73 347.97 923.12 370.14 928.73 363.14 938.73 330.18 938.73 292.14 963.73 313.14 970.73 342.64 970.73 362.14 965.73 435.97 970.73 473.14 955.73 454.14 948.73 489.14 906.73 468.14 890.73 451.14 889.73 459.14 868.73 458.14 852.73 434.14 806.73 429.14 780.73 393.14 789.73"/>
  <polygon class="cls-2" points="429.14 780.73 429.14 767.33 413.14 752.73 396.42 752.73 384.14 742.73 403.14 748.73 416.14 744.73 413.14 735.73 435.14 713.73 443.14 695.73 424.14 687.73 394.01 687.73 404.14 676.73 402.14 669.73 424.14 659.73 428.14 648.73 403.14 646.73 392.14 641.73 388.86 641.73 378.14 651.73 373.14 662.73 365.14 666.73 360.14 683.73 352.14 702.73 342.14 709.73 349.14 715.73 366.14 709.73 352.14 728.73 344.14 746.73 339.14 763.73 346.14 761.73 352.14 746.73 360.14 746.73 360.14 753.73 363.14 761.73 350.14 778.73 347.14 784.73 352.14 795.73 370.14 793.73 384.14 789.73 393.14 789.73 429.14 780.73"/>
  <polygon class="cls-2" points="282.14 880.73 222.14 892.73 189.78 875.73 189.78 850.79 224.14 836.73 223.14 812.73 224.49 795.73 229.14 771.73 260.14 788.73 274.54 771.73 282.14 757.15 305.21 757.15 324.14 765.73 335.14 790.73 324.14 804.73 312.14 814.73 307.14 847.73 292.14 875.73 282.14 880.73"/>
  <polygon class="cls-2" points="292.14 1060.07 339.14 1089.62 355.14 1127.73 370.14 1162.73 370.14 1191.97 355.14 1236.73 339.14 1260.57 344.14 1271.73 376.14 1293.73 404.14 1299.73 431.14 1308.73 456.14 1322.73 477.22 1322.73 477.14 1307.73 477.22 1293.28 507.14 1285.73 528.14 1288.73 548.14 1298.73 569.14 1306.73 596.14 1289.73 610.14 1277.73 610.14 1262.68 598.14 1261.73 594.14 1246.73 595.14 1237.73 587.14 1225.73 601.14 1221.73 600.68 1191.4 585.14 1178.73 570.14 1184.73 585.14 1160.73 605.14 1132.73 621.14 1129.73 630.14 1088.73 639.14 1071.73 600.68 1060.07 588.14 1046.73 564.8 1046.73 549.14 1021.73 534.14 1015.73 517.14 995.73 499.38 970.73 475.14 978.73 472.14 1004.73 437.14 1018.73 427.14 1030.73 400.14 1025.73 390.64 1011.53 375.14 1007.73 381.14 1038.73 378.14 1052.73 351.14 1044.73 327.14 1031.73 299.14 1035.73 303.14 1054.73 292.14 1060.07"/>
  <polygon class="cls-2" points="499.38 970.73 524.14 965.73 535.14 973.73 552.05 965.73 565.43 970.73 584.14 980.73 579.14 994.73 590.14 999.73 594.14 1010.73 589.14 1023.73 592.14 1032.73 596.14 1037.73 588.14 1046.73 564.8 1046.73 549.14 1021.73 534.14 1015.73 517.14 995.73 499.38 970.73"/>
  <polygon class="cls-2" points="524.14 965.73 544.14 946.73 564.14 909.73 566.14 901.73 575.14 915.73 571.14 930.73 580.14 936.73 590.14 926.73 584.14 909.73 584.14 895.73 605.56 892.73 620.14 894.73 625.14 901.73 621.14 917.73 621.14 925.73 613.5 923.12 613.09 929.23 621.14 931.73 610.14 952.73 593.14 951.73 594.14 975.73 589.14 989.73 590.14 999.73 579.14 994.73 584.14 980.73 565.43 970.73 552.05 965.73 535.14 973.73 524.14 965.73"/>
  <polygon class="cls-2" points="600.68 1191.4 621.64 1196.23 639.14 1177.78 650.64 1193.23 656.64 1201.23 663.64 1187.23 667.07 1177.78 675.64 1186.23 685.64 1186.23 685.64 1173.43 695.1 1173.43 695.1 1163.29 696.55 1154.73 689.64 1162.23 680.64 1158.23 670.94 1154.73 679.64 1140.23 670.14 1134.73 648.14 1122.73 621.14 1129.73 605.14 1132.73 570.14 1184.73 585.14 1178.73 600.68 1191.4"/>
  <polygon class="cls-2" points="695.1 1173.43 701.94 1161.98 713.72 1167.71 725.64 1160.23 746.6 1154.73 746.6 1168.34 786.64 1176.23 780.64 1188.23 786.64 1194.35 786.64 1201.23 791.14 1208.58 775.07 1208.58 755.64 1221.23 748.64 1229.23 754.64 1239.23 751.64 1262.23 756.64 1279.23 783.64 1294.23 796.64 1315.23 800.64 1336.23 815.64 1347.23 827.64 1358.23 841.64 1362.23 864.87 1362.23 869.64 1369.23 859.64 1374.23 869.64 1382.79 885.64 1390.23 903.64 1399.23 916.64 1406.23 929.64 1412.23 938.64 1423.23 944.64 1432.23 942.64 1440.23 929.64 1436.23 922.64 1425.23 905.64 1424.23 900.64 1416.23 890.64 1424.23 885.64 1443.23 883.64 1450.23 895.64 1454.23 904.64 1461.23 904.64 1472.23 900.64 1484.23 888.43 1484.23 887.64 1493.23 881.64 1506.23 873.64 1517.23 869.64 1523.23 858.98 1523.23 857.64 1512.23 863.64 1505.23 865.64 1498.23 863.64 1492.23 871.64 1492.23 873.64 1481.23 866.64 1468.23 855.64 1439.23 844.64 1440.23 830.64 1429.23 830.64 1421.23 826.64 1415.23 815.64 1416.23 815.64 1411.23 803.64 1409.23 791.14 1388.19 772.64 1392.23 760.64 1383.23 747.64 1366.23 737.64 1360.23 719.64 1341.23 704.64 1325.23 696.55 1317.52 688.64 1287.23 679.64 1273.23 658.64 1262.23 643.64 1260.23 628.64 1273.23 621.64 1282.23 610.14 1277.73 610.14 1262.68 598.14 1261.73 594.14 1246.73 595.14 1237.73 587.14 1225.73 601.14 1221.73 600.68 1191.4 621.64 1196.23 639.14 1177.78 656.64 1201.23 667.07 1177.78 685.64 1186.23 695.1 1173.43"/>
  <polygon class="cls-2" points="477.22 1322.73 477.22 1344.03 439.64 1363.23 399.64 1372.23 393.64 1382.23 363.64 1414.23 353.64 1432.23 364.64 1454.23 336.64 1470.23 328.64 1489.23 328.64 1496.79 308.64 1497.23 288.64 1514.23 281.12 1523.23 269.64 1517.23 250.64 1516.23 226.64 1510.23 207.64 1507.23 184.64 1513.23 166.64 1526.23 150.64 1519.23 146.64 1500.23 138.64 1480.23 120.64 1464.23 114.64 1449.23 130.64 1435.23 134.64 1429.23 132.64 1413.23 143.64 1384.23 135.64 1366.23 154.64 1365.23 168.64 1315.23 190.64 1300.23 183.64 1287.23 169.64 1280.23 136.64 1275.23 137.64 1261.23 117.67 1261.23 119.64 1218.23 149.64 1212.23 152.64 1206.23 181.64 1209.23 197.64 1222.23 238.64 1233.23 273.64 1244.23 301.64 1253.23 333.64 1262.23 339.14 1260.57 344.14 1271.73 376.14 1293.73 431.14 1308.73 456.14 1322.73 477.22 1322.73"/>
  <polygon class="cls-2" points="117.67 1261.23 114.64 1307.18 93.64 1341.23 75.48 1366.23 67.64 1385.23 76.64 1401.23 81.42 1401.23 78.64 1426.23 67.64 1453.4 67.64 1458.75 80.64 1459.23 99.64 1467.23 120.64 1464.23 114.64 1449.23 134.64 1429.23 132.64 1413.23 143.64 1384.23 135.64 1366.23 154.64 1365.23 168.64 1315.23 190.64 1300.23 183.64 1287.23 169.64 1280.23 136.64 1275.23 137.64 1261.23 117.67 1261.23"/>
  <polygon class="cls-1" points="625.14 901.73 630.19 887.77 630.19 869.41 655.01 873.19 655.01 881.83 666.89 872.65 669.59 821.92 698.73 827.85 705.21 844.59 728.42 848.9 724.1 861.82 756.49 852.14 783.48 835.95 802.37 861.82 809.38 887.23 806.14 911.55 816.4 928.25 820.18 957.93 826.66 982.22 787.25 1003.27 751.09 1017.31 762.42 1046.73 786.71 1070.2 799.13 1079.92 788.33 1093.95 774.84 1106.37 777.54 1133.35 758.11 1126.88 720.86 1135.51 701.97 1129.03 699.81 1141.99 685.78 1132.27 654.47 1118.78 621.14 1129.73 639.14 1071.73 600.68 1060.07 588.14 1046.73 596.14 1037.73 589.14 1023.73 594.14 1010.73 589.14 989.73 594.14 975.73 593.14 951.73 610.14 952.73 621.14 931.73 613.09 929.23 613.5 923.12 621.14 925.73 625.14 901.73"/>
</svg>