<?xml version="1.0" encoding="UTF-8"?>
<svg id="Layer_1" data-name="Layer 1" xmlns="http://www.w3.org/2000/svg" xmlns:xlink="http://www.w3.org/1999/xlink" version="1.1" viewBox="0 0 1545.3 1823.1">
  <defs>
    <style>
      .cls-1 {
        stroke-width: 2px;
      }

      .cls-1, .cls-2, .cls-3 {
        fill: none;
        stroke: #000;
        stroke-miterlimit: 10;
      }

      .cls-2 {
        stroke-width: 4px;
      }

      .cls-4 {
        isolation: isolate;
      }
    </style>
  </defs>
  <image class="cls-4" width="2484" height="2933" transform="scale(.6)" xlink:href="../../../../../../Downloads/Europe Map.jpg"/>
  <polygon class="cls-2" points="393.1 789.7 379.1 804.7 393.1 828.6 379.1 858.3 355.9 858.3 334.1 866.7 348.1 871.7 343.1 891.7 316.1 896.7 323.1 912.7 348 923.1 370.1 928.7 363.1 938.7 330.2 938.7 292.1 963.7 313.1 970.7 342.6 970.7 362.1 965.7 436 970.7 473.1 955.7 454.1 948.7 489.1 906.7 468.1 890.7 451.1 889.7 459.1 868.7 458.1 852.7 434.1 806.7 429.1 780.7 393.1 789.7"/>
  <polygon class="cls-2" points="429.1 780.7 429.1 767.3 413.1 752.7 396.4 752.7 384.1 742.7 403.1 748.7 416.1 744.7 413.1 735.7 435.1 713.7 443.1 695.7 424.1 687.7 394 687.7 404.1 676.7 402.1 669.7 424.1 659.7 428.1 648.7 403.1 646.7 392.1 641.7 388.9 641.7 378.1 651.7 373.1 662.7 365.1 666.7 360.1 683.7 352.1 702.7 342.1 709.7 349.1 715.7 366.1 709.7 352.1 728.7 344.1 746.7 339.1 763.7 346.1 761.7 352.1 746.7 360.1 746.7 360.1 753.7 363.1 761.7 350.1 778.7 347.1 784.7 352.1 795.7 370.1 793.7 384.1 789.7 393.1 789.7 429.1 780.7"/>
  <polygon class="cls-2" points="282.1 880.7 222.1 892.7 189.8 875.7 189.8 850.8 224.1 836.7 223.1 812.7 224.5 795.7 229.1 771.7 260.1 788.7 274.5 771.7 282.1 757.2 305.2 757.2 324.1 765.7 335.1 790.7 324.1 804.7 312.1 814.7 307.1 847.7 292.1 875.7 282.1 880.7"/>
  <polygon class="cls-2" points="292.1 1060.1 339.1 1089.6 355.1 1127.7 370.1 1162.7 370.1 1192 355.1 1236.7 339.1 1260.6 344.1 1271.7 376.1 1293.7 404.1 1299.7 431.1 1308.7 456.1 1322.7 477.2 1322.7 477.1 1307.7 477.2 1293.3 507.1 1285.7 528.1 1288.7 548.1 1298.7 569.1 1306.7 596.1 1289.7 610.1 1277.7 610.1 1262.7 598.1 1261.7 594.1 1246.7 595.1 1237.7 587.1 1225.7 601.1 1221.7 600.7 1191.4 585.1 1178.7 570.1 1184.7 585.1 1160.7 605.1 1132.7 621.1 1129.7 630.1 1088.7 639.1 1071.7 600.7 1060.1 588.1 1046.7 564.8 1046.7 549.1 1021.7 534.1 1015.7 517.1 995.7 499.4 970.7 475.1 978.7 472.1 1004.7 437.1 1018.7 427.1 1030.7 400.1 1025.7 390.6 1011.5 375.1 1007.7 381.1 1038.7 378.1 1052.7 351.1 1044.7 327.1 1031.7 299.1 1035.7 303.1 1054.7 292.1 1060.1"/>
  <polygon class="cls-2" points="499.4 970.7 524.1 965.7 535.1 973.7 552 965.7 565.4 970.7 584.1 980.7 579.1 994.7 590.1 999.7 594.1 1010.7 589.1 1023.7 592.1 1032.7 596.1 1037.7 588.1 1046.7 564.8 1046.7 549.1 1021.7 534.1 1015.7 517.1 995.7 499.4 970.7"/>
  <polygon class="cls-2" points="524.1 965.7 544.1 946.7 564.1 909.7 566.1 901.7 575.1 915.7 571.1 930.7 580.1 936.7 590.1 926.7 584.1 909.7 584.1 895.7 605.6 892.7 620.1 894.7 625.1 901.7 621.1 917.7 621.1 925.7 613.5 923.1 613.1 929.2 621.1 931.7 610.1 952.7 593.1 951.7 594.1 975.7 589.1 989.7 590.1 999.7 579.1 994.7 584.1 980.7 565.4 970.7 552 965.7 535.1 973.7 524.1 965.7"/>
  <polygon class="cls-2" points="600.7 1191.4 621.6 1196.2 639.1 1177.8 650.6 1193.2 656.6 1201.2 663.6 1187.2 667.1 1177.8 675.6 1186.2 685.6 1186.2 685.6 1173.4 695.1 1173.4 695.1 1163.3 696.5 1154.7 689.6 1162.2 680.6 1158.2 670.9 1154.7 679.6 1140.2 670.1 1134.7 648.1 1122.7 621.1 1129.7 605.1 1132.7 570.1 1184.7 585.1 1178.7 600.7 1191.4"/>
  <polygon class="cls-2" points="695.1 1173.4 701.9 1162 713.7 1167.7 725.6 1160.2 746.6 1154.7 746.6 1168.3 786.6 1176.2 780.6 1188.2 786.6 1194.3 786.6 1201.2 791.1 1208.6 775.1 1208.6 755.6 1221.2 748.6 1229.2 754.6 1239.2 751.6 1262.2 756.6 1279.2 783.6 1294.2 796.6 1315.2 800.6 1336.2 815.6 1347.2 827.6 1358.2 841.6 1362.2 864.9 1362.2 869.6 1369.2 859.6 1374.2 869.6 1382.8 885.6 1390.2 903.6 1399.2 916.6 1406.2 929.6 1412.2 938.6 1423.2 944.6 1432.2 942.6 1440.2 929.6 1436.2 922.6 1425.2 905.6 1424.2 900.6 1416.2 890.6 1424.2 885.6 1443.2 883.6 1450.2 895.6 1454.2 904.6 1461.2 904.6 1472.2 900.6 1484.2 888.4 1484.2 887.6 1493.2 881.6 1506.2 873.6 1517.2 869.6 1523.2 859 1523.2 857.6 1512.2 863.6 1505.2 865.6 1498.2 863.6 1492.2 871.6 1492.2 873.6 1481.2 866.6 1468.2 855.6 1439.2 844.6 1440.2 830.6 1429.2 830.6 1421.2 826.6 1415.2 815.6 1416.2 815.6 1411.2 803.6 1409.2 791.1 1388.2 772.6 1392.2 760.6 1383.2 747.6 1366.2 737.6 1360.2 719.6 1341.2 704.6 1325.2 696.5 1317.5 688.6 1287.2 679.6 1273.2 658.6 1262.2 643.6 1260.2 628.6 1273.2 621.6 1282.2 610.1 1277.7 610.1 1262.7 598.1 1261.7 594.1 1246.7 595.1 1237.7 587.1 1225.7 601.1 1221.7 600.7 1191.4 621.6 1196.2 639.1 1177.8 656.6 1201.2 667.1 1177.8 685.6 1186.2 695.1 1173.4"/>
  <polygon class="cls-2" points="477.2 1322.7 477.2 1344 439.6 1363.2 399.6 1372.2 393.6 1382.2 363.6 1414.2 353.6 1432.2 364.6 1454.2 336.6 1470.2 328.6 1489.2 328.6 1496.8 308.6 1497.2 288.6 1514.2 281.1 1523.2 269.6 1517.2 250.6 1516.2 226.6 1510.2 207.6 1507.2 184.6 1513.2 166.6 1526.2 150.6 1519.2 146.6 1500.2 138.6 1480.2 120.6 1464.2 114.6 1449.2 130.6 1435.2 134.6 1429.2 132.6 1413.2 143.6 1384.2 135.6 1366.2 154.6 1365.2 168.6 1315.2 190.6 1300.2 183.6 1287.2 169.6 1280.2 136.6 1275.2 137.6 1261.2 117.7 1261.2 119.6 1218.2 149.6 1212.2 152.6 1206.2 181.6 1209.2 197.6 1222.2 238.6 1233.2 273.6 1244.2 301.6 1253.2 333.6 1262.2 339.1 1260.6 344.1 1271.7 376.1 1293.7 431.1 1308.7 456.1 1322.7 477.2 1322.7"/>
  <polygon class="cls-2" points="117.7 1261.2 114.6 1307.2 93.6 1341.2 75.5 1366.2 67.6 1385.2 76.6 1401.2 81.4 1401.2 78.6 1426.2 67.6 1453.4 67.6 1458.8 80.6 1459.2 99.6 1467.2 120.6 1464.2 114.6 1449.2 134.6 1429.2 132.6 1413.2 143.6 1384.2 135.6 1366.2 154.6 1365.2 168.6 1315.2 190.6 1300.2 183.6 1287.2 169.6 1280.2 136.6 1275.2 137.6 1261.2 117.7 1261.2"/>
  <polygon class="cls-1" points="625.1 901.7 630.2 887.8 630.2 869.4 655 873.2 655 881.8 666.9 872.7 669.6 821.9 698.7 827.8 705.2 844.6 728.4 848.9 724.1 861.8 756.5 852.1 783.5 836 802.4 861.8 809.4 887.2 806.1 911.5 816.4 928.2 820.2 957.9 826.7 982.2 787.2 1003.3 751.1 1017.3 762.4 1046.7 786.7 1070.2 799.1 1079.9 788.3 1093.9 774.8 1106.4 777.5 1133.3 758.1 1126.9 720.9 1135.5 702 1129 699.8 1142 685.8 1132.3 654.5 1118.8 621.1 1129.7 639.1 1071.7 600.7 1060.1 588.1 1046.7 596.1 1037.7 589.1 1023.7 594.1 1010.7 589.1 989.7 594.1 975.7 593.1 951.7 610.1 952.7 621.1 931.7 613.1 929.2 613.5 923.1 621.1 925.7 625.1 901.7"/>
  <polygon class="cls-3" points="826.7 982.2 751.1 1017.3 762.4 1046.7 799.1 1079.9 804.6 1084.3 820.7 1086.1 826.7 1076.3 831.5 1067.8 862.9 1075.8 882.2 1078.5 879.5 1092 889.8 1104.5 908.2 1116.2 937.8 1112.6 937.8 1102.3 952.1 1099.1 958.9 1093.8 967.8 1096 977.3 1088.8 982.2 1075.4 1008.6 1074.9 1015.4 1081.2 1026.6 1078.5 1026.6 1069.5 1036.5 1049.2 1020.3 1044.9 1018.1 1039.1 996.1 1035.9 989.4 1044.4 980.4 1040 965.6 1045.8 965.6 1051.6 959.3 1051.2 959.3 1042.6 949.9 1035.9 939.6 1045.8 933.3 1041.7 923.4 1025.2 906.4 1021.1 897.9 1018.9 899.2 1009.5 884 1007.7 875.5 1008.6 871.9 1019.3 860.2 1007.7 862.5 1000.5 842.3 995.1 826.7 982.2"/>
  <polygon class="cls-3" points="802.4 861.8 852.6 845.3 856.6 835 901 821.9 909.5 838.6 927.9 839.9 949.5 835.5 998.3 831.9 1010.9 827.8 1026.1 835 1028.8 846.2 1040.5 871.3 1046.3 894.2 1036.5 905 1033.3 913.9 1041.8 920.7 1046.3 942.2 1058.4 961 1064.7 982 1055.7 994.2 1040.9 1015.3 1036.5 1030.5 1045.9 1049.2 1020.3 1044.9 1018.1 1039.1 996.1 1035.9 989.4 1044.4 980.4 1040 965.6 1045.8 965.6 1051.6 959.3 1051.2 959.3 1042.6 949.9 1035.9 939.6 1045.8 933.3 1041.7 923.4 1025.2 897.9 1018.9 899.2 1009.5 875.5 1008.6 871.9 1019.3 860.2 1007.7 862.5 1000.5 842.3 995.1 826.7 982.2 816.4 928.2 806.1 911.5 809.4 887.2 802.4 861.8"/>
  <polygon class="cls-3" points="701.9 1162 713.7 1167.7 746.6 1154.7 746.6 1168.3 786.6 1176.2 780.6 1188.2 786.6 1194.3 791.1 1208.6 791.1 1215.3 798.7 1237.2 815.7 1224.1 829.4 1237.2 837.1 1256.4 855.2 1283.8 880.9 1293.7 908.3 1310.1 939.6 1332.6 948.3 1317.2 952.2 1292.6 974.6 1282.7 966.4 1269.6 977.4 1266.3 959.8 1255.9 964.8 1230.1 956 1221.9 947.8 1193.4 969.7 1179.7 996.5 1174.2 1011.3 1165.5 1036.5 1105.2 1053 1092 1026.6 1078.5 1015.4 1081.2 1008.6 1074.9 982.2 1075.4 977.3 1088.8 967.8 1096 958.9 1093.8 952.1 1099.1 937.8 1102.3 937.8 1112.6 908.2 1116.2 889.8 1104.5 879.5 1092 882.2 1078.5 831.5 1067.8 820.7 1086.1 799.1 1079.9 788.3 1093.9 774.8 1106.4 777.5 1133.3 758.1 1126.9 720.9 1135.5 702 1129 699.8 1142 654.5 1118.8 648.1 1122.7 679.6 1140.2 670.9 1154.7 689.6 1162.2 696.5 1154.7 701.9 1162"/>
  <polygon class="cls-3" points="1046.3 942.2 1064.7 927.3 1111.6 917.2 1161.6 921.1 1224.6 917.2 1229.6 882.3 1260.5 871.6 1291.5 854.2 1315.6 869.9 1320.1 893 1345.4 894.1 1362.3 917.7 1392.1 917.2 1412.3 902 1431.4 914.4 1491.6 909.2 1491.6 950.3 1502.8 964.9 1506.8 982.2 1483.1 985.7 1471.9 1006 1472.5 1022.3 1401.6 1087.5 1393.8 1102.7 1413.4 1121.8 1455 1105.5 1455 1119.5 1444.9 1129.7 1429.2 1129.7 1419.6 1148.2 1403.3 1154.7 1393.8 1174.1 1371.8 1170.1 1376.9 1158.9 1371.3 1146 1348.2 1142 1342.6 1144.3 1356.1 1122.9 1365.1 1113.4 1359.5 1102.1 1328 1116.2 1310 1108.3 1294.3 1102.7 1280.8 1124.6 1263.9 1165.6 1233 1174.1 1234.7 1144.8 1232.4 1125.2 1261.7 1119.5 1239.7 1099.3 1220.1 1058.8 1175.7 1049.2 1144.2 1070.6 1105.9 1092 1058.2 1089.2 1053 1092 1026.6 1078.5 1026.6 1069.5 1036.5 1049.2 1045.9 1049.2 1036.5 1030.5 1064.7 982 1046.3 942.2"/>
  <polygon class="cls-3" points="1233 1174.1 1232.4 1125.2 1261.7 1119.5 1239.7 1099.3 1220.1 1058.8 1175.7 1049.2 1105.9 1092 1058.2 1089.2 1036.5 1105.2 1011.3 1165.5 996.5 1174.2 969.7 1179.7 947.8 1193.4 956 1221.9 964.8 1230.1 959.8 1255.9 977.4 1266.3 966.4 1269.6 974.6 1282.7 952.2 1292.6 948.3 1317.2 939.6 1332.6 970.3 1354.8 980.4 1358.9 980.7 1393.2 981.4 1419.9 1002.2 1436.9 1005 1446.6 1016.1 1436.2 1026.5 1413.7 1037.2 1393.2 1061.1 1378.7 1081.9 1373.8 1097.1 1363.1 1116.9 1356.8 1135.9 1352.3 1148.4 1356.1 1165.7 1357.9 1183.7 1350.9 1185.1 1339 1191.4 1337.4 1195.9 1326.4 1213.5 1317.3 1241.9 1314.6 1223.9 1293.4 1224.6 1262.3 1242.3 1253.3 1244.4 1238 1241.9 1202.3 1244 1185.7 1261.7 1185.3 1261.7 1170.8 1263.9 1165.6 1233 1174.1"/>
  <polygon class="cls-3" points="1005 1446.6 1026.6 1467.4 1042.9 1492.6 1112.6 1492.6 1105.9 1502.6 1080.1 1497.2 1053 1502.6 1053 1518.5 1065.5 1527.8 1069.6 1536.2 1066 1542 1066.6 1548.9 1071.2 1551.3 1071.2 1556.9 1076.6 1557.8 1077.6 1560.3 1080.8 1556 1078.9 1549.1 1085.6 1547.8 1086.5 1552 1090.6 1552.2 1094.2 1560.3 1095.3 1565.9 1100.5 1570.9 1100.3 1563.2 1101.7 1554.7 1107.8 1553.5 1111.2 1558.6 1117.9 1563.4 1120.7 1567 1124.6 1566 1119.2 1560.6 1117.1 1553.5 1118.4 1551.3 1111.4 1539 1102.8 1522.2 1108.9 1522.9 1114.2 1524.4 1114.2 1528.3 1119.2 1531.3 1122.4 1525.9 1132.1 1522.4 1116.8 1517.9 1114.7 1506.3 1108.4 1508.7 1115.1 1504.5 1120.9 1503 1128 1505.8 1139.2 1509.7 1145.9 1513.2 1142.9 1502.8 1142.9 1493.1 1138 1488.4 1128 1484.9 1120.7 1480.2 1114.3 1479.1 1109.1 1474.6 1098.9 1469.9 1089.1 1468.5 1100 1466.4 1104.3 1461.2 1096.6 1454.3 1097.7 1447.6 1105.4 1448.7 1108.2 1453.9 1106.5 1457.1 1114.7 1452 1096.2 1433.9 1084.7 1420.5 1085 1408 1085 1397.7 1091.9 1395.5 1090.8 1402.2 1094.6 1407.6 1101.7 1408.4 1108 1412.1 1112.5 1421.6 1120.7 1420.5 1109.1 1410 1117.9 1408.4 1127.4 1419.6 1130.2 1415.6 1119.4 1404.4 1124.8 1402.8 1134.7 1406.9 1141.8 1411 1137.9 1403.9 1127.4 1399.8 1120.9 1393.4 1117 1388.6 1123.1 1385.2 1130.4 1386 1135.4 1378.1 1141.6 1375.3 1149.4 1379.1 1156.3 1372.2 1166 1372.2 1188.2 1375 1195.5 1369.2 1195.5 1354.4 1201.9 1346.8 1198.7 1335.8 1191.4 1337.4 1185.1 1339 1183.7 1350.9 1165.7 1357.9 1148.4 1356.1 1135.9 1352.3 1097.1 1363.1 1081.9 1373.8 1061.1 1378.7 1037.2 1393.2 1016.1 1436.2 1005 1446.6"/>
  <path class="cls-3" d="M1289.7,1279.9"/>
  <polygon class="cls-3" points="1241.9 1314.6 1213.5 1317.3 1195.9 1326.4 1192 1335.8 1198.7 1335.8 1201.9 1346.8 1195.5 1354.4 1195.5 1369.2 1188.2 1375 1191.5 1380.7 1204.6 1378 1213.2 1375.2 1213.6 1379.2 1205.6 1386 1198.1 1392.1 1198.5 1396.8 1198.9 1404.8 1222.2 1375.6 1234 1355.9 1256.7 1350 1275.1 1348.8 1288 1351.8 1310.7 1352.3 1278.2 1366.4 1287.4 1370 1263.9 1375.6 1249.5 1379.9 1232.4 1383.1 1215 1386.8 1206.2 1399.3 1200.5 1411.5 1200.5 1426.9 1214.4 1423.2 1225.9 1418.7 1220.5 1429.1 1224.8 1439.3 1234.6 1449 1237.8 1464.3 1216.1 1460.5 1216.1 1479.3 1249.5 1481.7 1247.5 1494.7 1247.5 1505.3 1266.3 1516.4 1289.7 1513.1 1277.4 1526.1 1313.1 1524.2 1338.7 1542 1367.1 1528 1367.1 1498.1 1405.7 1504.9 1438.5 1522.2 1463.1 1507.3 1498.8 1471.6 1521.5 1476.4 1521.5 1271.8 1509.5 1268.9 1498.8 1272.8 1489.2 1268.9 1488.2 1262.2 1475.2 1262.2 1463.6 1268.9 1455.4 1253 1441.4 1264.1 1393.7 1275.2 1367.6 1297.4 1349.8 1326.4 1317.9 1330.7 1286.1 1333.6 1247.5 1331.2 1241.9 1314.6"/>
  <polygon class="cls-3" points="1521.5 1131.9 1461.3 1116.5 1482.9 1101.7 1481.8 1069.8 1498.3 1064.1 1471 1053.8 1503.4 1024.8 1497.2 1014.1 1475.4 1024.8 1472.5 1022.3 1471.9 1006 1483.1 985.7 1506.8 982.2 1502.8 964.9 1491.6 950.3 1491.6 909.2 1431.4 914.4 1412.3 902 1392.1 917.2 1362.3 917.7 1345.4 894.1 1320.1 893 1315.6 869.9 1291.5 854.2 1229.6 882.3 1229.6 836.6 1257.4 817.8 1210.7 787.3 1184.1 739.1 1136.9 730.2 1116.2 730.2 1107.4 693.8 1089.7 648.6 1078.9 613.2 1087.7 595.5 1111.3 573.8 1078.9 555.1 1120.2 435.1 1078.9 414.5 1036.6 282.7 1002.1 196.1 1045.4 168.6 1144.8 191.7 1200.8 215.3 1205.7 265.5 1142.8 279.2 1098.5 278.2 1131 313.7 1158.5 364.8 1195.9 364.8 1215.6 362.8 1187.1 337.3 1180.2 320.5 1234.3 319.6 1218.5 278.2 1246.1 232 1275.6 247.8 1231.3 164.1 1232.3 139.6 1261.8 139.6 1268.7 166.1 1261.8 183.8 1295.3 189.7 1305.1 173 1298.2 126.8 1337.6 66.8 1387.7 54 1428 26.4 1424.1 14.6 1508.7 14.6 1521.5 1131.9"/>
</svg>